# Tiled2Unity generated file. Do not modify by hand.
# Wavefront file for 'm_test_mesh_0002.obj'

# Vertices (Count = 108)
v -17 -7 0
v -19 -7 0
v -19 -6 0
v -17 -6 0
v -16 -7.5 0
v -18 -7.5 0
v -18 -6.5 0
v -16 -6.5 0
v -15 -8 0
v -17 -8 0
v -17 -7 0
v -15 -7 0
v -14 -8.5 0
v -16 -8.5 0
v -16 -7.5 0
v -14 -7.5 0
v -18 -10.5 0
v -20 -10.5 0
v -20 -9.5 0
v -18 -9.5 0
v -19 -11 0
v -21 -11 0
v -21 -10 0
v -19 -10 0
v -22 -12.5 0
v -24 -12.5 0
v -24 -11.5 0
v -22 -11.5 0
v -13 -9 0
v -15 -9 0
v -15 -8 0
v -13 -8 0
v -17 -11 0
v -19 -11 0
v -19 -10 0
v -17 -10 0
v -18 -11.5 0
v -20 -11.5 0
v -20 -10.5 0
v -18 -10.5 0
v -20 -12.5 0
v -22 -12.5 0
v -22 -11.5 0
v -20 -11.5 0
v -21 -13 0
v -23 -13 0
v -23 -12 0
v -21 -12 0
v -12 -9.5 0
v -14 -9.5 0
v -14 -8.5 0
v -12 -8.5 0
v -6 -7.5 0
v -8 -7.5 0
v -8 -6.5 0
v -6 -6.5 0
v -11 -10 0
v -13 -10 0
v -13 -9 0
v -11 -9 0
v -8 -9.5 0
v -10 -9.5 0
v -10 -8.5 0
v -8 -8.5 0
v -9 -10 0
v -11 -10 0
v -11 -9 0
v -9 -9 0
v -10 -10.5 0
v -12 -10.5 0
v -12 -9.5 0
v -10 -9.5 0
v -11 -11 0
v -13 -11 0
v -13 -10 0
v -11 -10 0
v -12 -11.5 0
v -14 -11.5 0
v -14 -10.5 0
v -12 -10.5 0
v -7 -10 0
v -9 -10 0
v -9 -9 0
v -7 -9 0
v -11 -12 0
v -13 -12 0
v -13 -11 0
v -11 -11 0
v -4 -9.5 0
v -6 -9.5 0
v -6 -8.5 0
v -4 -8.5 0
v -5 -10 0
v -7 -10 0
v -7 -9 0
v -5 -9 0
v -6 -10.5 0
v -8 -10.5 0
v -8 -9.5 0
v -6 -9.5 0
v -10 -12.5 0
v -12 -12.5 0
v -12 -11.5 0
v -10 -11.5 0
v -9 -13 0
v -11 -13 0
v -11 -12 0
v -9 -12 0

# Texture cooridinates (Count = 12)
vt 0 0.8333333
vt 1 0.8333333
vt 1 1
vt 0 1
vt 0 0.5
vt 1 0.5
vt 1 0.6666666
vt 0 0.6666666
vt 0 0.1666667
vt 1 0.1666667
vt 1 0.3333333
vt 0 0.3333333

# Normal
vn 0 0 -1

# Mesh description
g m_test_mesh_0002

# Faces
f 1/1/1 2/2/1 3/3/1 4/4/1
f 5/1/1 6/2/1 7/3/1 8/4/1
f 9/5/1 10/6/1 11/7/1 12/8/1
f 13/5/1 14/6/1 15/7/1 16/8/1
f 17/9/1 18/10/1 19/11/1 20/12/1
f 21/9/1 22/10/1 23/11/1 24/12/1
f 25/9/1 26/10/1 27/11/1 28/12/1
f 29/1/1 30/2/1 31/3/1 32/4/1
f 33/9/1 34/10/1 35/11/1 36/12/1
f 37/9/1 38/10/1 39/11/1 40/12/1
f 41/9/1 42/10/1 43/11/1 44/12/1
f 45/9/1 46/10/1 47/11/1 48/12/1
f 49/1/1 50/2/1 51/3/1 52/4/1
f 53/5/1 54/6/1 55/7/1 56/8/1
f 57/1/1 58/2/1 59/3/1 60/4/1
f 61/1/1 62/2/1 63/3/1 64/4/1
f 65/1/1 66/2/1 67/3/1 68/4/1
f 69/1/1 70/2/1 71/3/1 72/4/1
f 73/1/1 74/2/1 75/3/1 76/4/1
f 77/1/1 78/2/1 79/3/1 80/4/1
f 81/1/1 82/2/1 83/3/1 84/4/1
f 85/1/1 86/2/1 87/3/1 88/4/1
f 89/1/1 90/2/1 91/3/1 92/4/1
f 93/1/1 94/2/1 95/3/1 96/4/1
f 97/1/1 98/2/1 99/3/1 100/4/1
f 101/1/1 102/2/1 103/3/1 104/4/1
f 105/1/1 106/2/1 107/3/1 108/4/1

